<?xml version="1.0" encoding="UTF-8"?>
<svg id="Layer_1" data-name="Layer 1" xmlns="http://www.w3.org/2000/svg" viewBox="0 0 64 64">
  <path d="M56.98,33.47c-.61-.53-1.29-1.07-2-1.45-.01-.06,0-.06.04-.09.22-.22.52-.43.75-.64,3.2-3.02,6.18-7.37,6.37-11.92.36-8.27-6.31-15.55-14.54-16.01H10.64v7.06c2.66,0,5.32.01,7.98,0,9.46-.03,18.93-.03,28.39-.12,4.81-.04,8.38,3.36,8.77,8.13.44,5.36-4.38,9.37-9.41,9.71-.93.06-1.86.02-2.79.03-5.57.11-11.14.21-16.7.3-1.36.02-2.73.02-4.09.04v6.86h24.08c7.17.55,11.05,8.82,6.67,14.67-1.85,2.47-4.48,3.6-7.54,3.66-3.17.06-6.4.03-9.58.04-8.59.03-17.18,0-25.78.04v6.86h36.13l.09-.04c13.81-.15,20.78-17.79,10.13-27.14Z" fill="#139390"/>
  <path d="M39.82,21.67v-5.77c-.04-.39-.31-.48-.66-.51H13.48c-6.25.27-11.24,5.12-11.63,11.35v10.45c.33,6.16,5.46,11.07,11.59,11.32l25.94.06c.22-.06.42-.22.44-.46v-5.81c-.01-.29-.26-.5-.55-.51H12.43c-2.05-.13-3.72-1.81-3.86-3.86v-11.92c.2-2.11,1.86-3.71,3.98-3.83h26.88c.21-.09.41-.26.41-.51Z" fill="#139390"/>
  <path d="M5,10.97c3.2.19,4.9-3.69,2.57-5.87-2.02-1.89-5.48-.64-5.72,2.13-.02.19-.02.52,0,.72.15,1.59,1.57,2.93,3.15,3.02Z" fill="#139390"/>
  <path d="M6.42,54.06c-2.05-.74-4.37.62-4.57,2.82-.02.23.02.48,0,.72.06.2.08.4.13.6.31,1.14,1.38,2.14,2.54,2.37.23.05.46.03.69.09h.08c3.88-.24,4.57-5.35,1.14-6.59Z" fill="#139390"/>
  <circle cx="15.99" cy="31.98" r="3.4" fill="#139390"/>
  <circle cx="47.68" cy="45.18" r="3.4" fill="#139390"/>
  <circle cx="47.68" cy="18.79" r="3.4" fill="#139390"/>
</svg>