<?xml version="1.0" encoding="UTF-8"?>
<svg id="Layer_1" data-name="Layer 1" xmlns="http://www.w3.org/2000/svg" viewBox="0 0 200 48">
  <path d="M7.2,14.87h9.37c1.56,0,2.76.39,3.6,1.16.84.77,1.25,1.73,1.25,2.87,0,.96-.3,1.78-.9,2.47-.4.46-.98.82-1.75,1.08,1.16.28,2.02.76,2.57,1.44.55.68.82,1.54.82,2.57,0,.84-.2,1.59-.59,2.26s-.92,1.2-1.6,1.59c-.42.24-1.05.42-1.9.53-1.13.15-1.87.22-2.24.22H7.2V14.87ZM12.25,21.23h2.18c.78,0,1.32-.13,1.63-.4.31-.27.46-.66.46-1.17,0-.47-.15-.84-.46-1.11-.31-.27-.84-.4-1.6-.4h-2.21v3.07ZM12.25,27.59h2.55c.86,0,1.47-.15,1.82-.46.35-.31.53-.72.53-1.23,0-.48-.18-.86-.52-1.15-.35-.29-.96-.44-1.84-.44h-2.54v3.28Z" fill="#139390"/>
  <path d="M24.99,14.87h5.02v16.2h-5.02V14.87Z" fill="#139390"/>
  <path d="M33.67,14.87h7.44c1.47,0,2.65.2,3.55.6.9.4,1.65.97,2.24,1.71.59.74,1.02,1.61,1.28,2.6.27.99.4,2.03.4,3.14,0,1.73-.2,3.07-.59,4.03-.39.95-.94,1.75-1.64,2.4-.7.65-1.45,1.07-2.25,1.29-1.1.29-2.09.44-2.98.44h-7.44V14.87ZM38.68,18.54v8.85h1.23c1.05,0,1.79-.12,2.23-.35.44-.23.79-.64,1.04-1.22s.38-1.52.38-2.81c0-1.72-.28-2.89-.84-3.53-.56-.63-1.49-.95-2.79-.95h-1.25Z" fill="#139390"/>
  <path d="M50.34,25.71l4.76-.3c.1.77.31,1.36.63,1.77.52.66,1.25.98,2.21.98.71,0,1.27-.17,1.65-.5.39-.33.58-.72.58-1.16s-.18-.8-.55-1.13c-.37-.33-1.22-.64-2.56-.94-2.2-.49-3.76-1.15-4.7-1.97-.94-.82-1.41-1.86-1.41-3.13,0-.83.24-1.62.72-2.36s1.21-1.32,2.18-1.75c.97-.42,2.3-.64,3.98-.64,2.07,0,3.65.39,4.74,1.15,1.09.77,1.73,2,1.94,3.68l-4.72.28c-.13-.73-.39-1.26-.79-1.59-.4-.33-.96-.5-1.66-.5-.58,0-1.02.12-1.32.37-.29.25-.44.55-.44.9,0,.26.12.49.36.7.24.21.8.41,1.68.6,2.19.47,3.76.95,4.7,1.43s1.64,1.08,2.07,1.8c.43.72.65,1.51.65,2.4,0,1.04-.29,2-.86,2.87s-1.38,1.54-2.41,2-2.33.68-3.9.68c-2.76,0-4.66-.53-5.72-1.59-1.06-1.06-1.66-2.41-1.8-4.04Z" fill="#139390"/>
  <path d="M85.89,24.44l4.39,1.33c-.29,1.23-.76,2.26-1.39,3.08-.63.83-1.42,1.45-2.36,1.87-.94.42-2.14.63-3.59.63-1.76,0-3.2-.26-4.32-.77s-2.08-1.41-2.89-2.7c-.81-1.29-1.22-2.94-1.22-4.95,0-2.68.71-4.74,2.14-6.18,1.43-1.44,3.44-2.16,6.05-2.16,2.04,0,3.65.41,4.81,1.24s2.04,2.09,2.6,3.8l-4.42.98c-.15-.49-.32-.85-.49-1.08-.28-.38-.62-.68-1.03-.88-.4-.21-.86-.31-1.36-.31-1.13,0-2,.46-2.61,1.37-.46.68-.69,1.74-.69,3.19,0,1.8.27,3.03.82,3.69.54.67,1.31,1,2.3,1s1.68-.27,2.17-.81c.49-.54.84-1.32,1.07-2.34Z"/>
  <path d="M92.08,22.98c0-2.65.74-4.71,2.21-6.18,1.47-1.47,3.53-2.21,6.16-2.21s4.77.72,6.23,2.17c1.46,1.45,2.19,3.48,2.19,6.08,0,1.89-.32,3.45-.96,4.66-.64,1.21-1.56,2.16-2.76,2.83s-2.71,1.01-4.5,1.01-3.34-.29-4.54-.87c-1.2-.58-2.17-1.5-2.91-2.76-.74-1.26-1.12-2.84-1.12-4.73ZM97.08,23.01c0,1.64.3,2.81.91,3.53.61.71,1.43,1.07,2.48,1.07s1.91-.35,2.5-1.05c.59-.7.88-1.96.88-3.77,0-1.53-.31-2.64-.92-3.34-.61-.7-1.45-1.06-2.5-1.06s-1.82.36-2.43,1.07c-.61.71-.92,1.9-.92,3.55Z"/>
  <path d="M111.59,14.87h4.67l6.1,8.96v-8.96h4.72v16.2h-4.72l-6.07-8.9v8.9h-4.71V14.87Z"/>
  <path d="M130.45,14.87h4.67l6.1,8.96v-8.96h4.72v16.2h-4.72l-6.07-8.9v8.9h-4.71V14.87Z"/>
  <path d="M149.26,14.87h13.42v3.46h-8.4v2.57h7.79v3.3h-7.79v3.19h8.64v3.67h-13.66V14.87Z"/>
  <path d="M176.4,24.44l4.39,1.33c-.29,1.23-.76,2.26-1.39,3.08-.63.83-1.42,1.45-2.36,1.87-.94.42-2.14.63-3.59.63-1.76,0-3.2-.26-4.32-.77s-2.08-1.41-2.89-2.7c-.81-1.29-1.22-2.94-1.22-4.95,0-2.68.71-4.74,2.14-6.18,1.43-1.44,3.44-2.16,6.05-2.16,2.04,0,3.65.41,4.81,1.24s2.04,2.09,2.6,3.8l-4.42.98c-.15-.49-.32-.85-.49-1.08-.28-.38-.62-.68-1.03-.88-.4-.21-.86-.31-1.36-.31-1.13,0-2,.46-2.61,1.37-.46.68-.69,1.74-.69,3.19,0,1.8.27,3.03.82,3.69.54.67,1.31,1,2.3,1s1.68-.27,2.17-.81c.49-.54.84-1.32,1.07-2.34Z"/>
  <path d="M182.08,14.87h15.22v4h-5.11v12.2h-5.01v-12.2h-5.11v-4Z"/>
</svg>