<?xml version="1.0" encoding="UTF-8"?>
<svg id="Layer_1" data-name="Layer 1" xmlns="http://www.w3.org/2000/svg" viewBox="0 0 200 48">
  <g>
    <path d="M43.85,25.07c-.44-.39-.94-.78-1.46-1.06-.01-.04,0-.04.03-.07.16-.16.38-.31.55-.47,2.34-2.2,4.51-5.39,4.66-8.71.26-6.04-4.61-11.36-10.62-11.7H9.99v5.15c1.94,0,3.89,0,5.83,0,6.91-.02,13.83-.02,20.74-.09,3.52-.03,6.12,2.46,6.41,5.94.32,3.92-3.2,6.84-6.87,7.1-.68.05-1.36.01-2.04.03-4.07.08-8.14.16-12.2.22-1,.02-1.99.02-2.99.03v5.02h17.59c5.24.4,8.07,6.45,4.87,10.72-1.35,1.8-3.28,2.63-5.51,2.68-2.31.05-4.68.02-7,.03-6.28.02-12.55,0-18.83.03v5.02h26.39l.07-.03c10.09-.11,15.18-13,7.4-19.83Z" fill="#139390"/>
    <path d="M31.31,16.45v-4.22c-.03-.28-.23-.35-.48-.37H12.07c-4.57.19-8.21,3.74-8.5,8.3v7.63c.24,4.5,3.99,8.09,8.47,8.27l18.95.05c.16-.04.3-.16.32-.34v-4.25c-.01-.21-.19-.37-.4-.37H11.3c-1.5-.1-2.72-1.32-2.82-2.82v-8.71c.14-1.54,1.36-2.71,2.91-2.8h19.64c.16-.06.3-.19.3-.37Z" fill="#139390"/>
    <path d="M5.87,8.64c2.34.14,3.58-2.7,1.88-4.29-1.48-1.38-4-.47-4.18,1.56-.01.14-.01.38,0,.52.11,1.16,1.14,2.14,2.3,2.21Z"/>
    <path d="M6.91,40.11c-1.5-.54-3.19.46-3.34,2.06-.02.17.01.35,0,.52.04.14.06.29.1.44.23.83,1,1.57,1.85,1.73.17.03.34.02.5.06h.06c2.83-.17,3.34-3.91.83-4.82Z"/>
    <circle cx="13.9" cy="23.99" r="2.48"/>
    <circle cx="37.05" cy="33.63" r="2.48"/>
    <circle cx="37.05" cy="14.35" r="2.48"/>
  </g>
  <g>
    <path d="M54.31,19.18h6.92c1.15,0,2.04.29,2.66.86.62.57.93,1.28.93,2.12,0,.71-.22,1.31-.66,1.82-.29.34-.72.6-1.29.8.86.21,1.49.56,1.9,1.07.41.5.61,1.14.61,1.9,0,.62-.14,1.18-.43,1.67s-.68.89-1.18,1.18c-.31.18-.78.31-1.4.39-.83.11-1.38.16-1.66.16h-6.38v-11.97ZM58.04,23.87h1.61c.58,0,.98-.1,1.2-.3.23-.2.34-.49.34-.86,0-.35-.11-.62-.34-.82-.23-.2-.62-.29-1.18-.29h-1.63v2.27ZM58.04,28.58h1.89c.64,0,1.09-.11,1.35-.34.26-.23.39-.53.39-.91,0-.35-.13-.64-.39-.85-.26-.21-.71-.32-1.36-.32h-1.88v2.42Z" fill="#139390"/>
    <path d="M67.45,19.18h3.71v11.97h-3.71v-11.97Z" fill="#139390"/>
    <path d="M73.86,19.18h5.49c1.08,0,1.96.15,2.62.44.67.29,1.22.72,1.65,1.27.44.55.75,1.19.95,1.92.2.73.29,1.5.29,2.32,0,1.28-.15,2.27-.44,2.97-.29.71-.7,1.29-1.21,1.77-.52.48-1.07.79-1.67.95-.81.22-1.55.33-2.2.33h-5.49v-11.97ZM77.56,21.89v6.54h.91c.77,0,1.32-.09,1.65-.26.33-.17.58-.47.77-.9s.28-1.12.28-2.08c0-1.27-.21-2.14-.62-2.6-.41-.47-1.1-.7-2.06-.7h-.92Z" fill="#139390"/>
    <path d="M86.17,27.19l3.52-.22c.08.57.23,1.01.47,1.31.38.48.92.73,1.63.73.53,0,.93-.12,1.22-.37.29-.25.43-.53.43-.86s-.14-.59-.41-.83c-.27-.25-.9-.48-1.89-.69-1.62-.37-2.78-.85-3.47-1.45-.7-.6-1.04-1.37-1.04-2.31,0-.61.18-1.2.53-1.74s.89-.98,1.61-1.29c.72-.31,1.7-.47,2.94-.47,1.53,0,2.69.28,3.5.85.8.57,1.28,1.47,1.43,2.71l-3.49.2c-.09-.54-.29-.93-.58-1.18-.3-.24-.71-.37-1.23-.37-.43,0-.75.09-.97.27-.22.18-.33.4-.33.67,0,.19.09.36.27.51.17.16.59.3,1.24.44,1.62.35,2.77.7,3.47,1.06s1.21.8,1.53,1.33c.32.53.48,1.12.48,1.77,0,.77-.21,1.47-.64,2.12s-1.02,1.14-1.78,1.47-1.72.5-2.88.5c-2.04,0-3.44-.39-4.23-1.18-.78-.78-1.23-1.78-1.33-2.99Z" fill="#139390"/>
    <path d="M112.43,26.25l3.24.98c-.22.91-.56,1.67-1.03,2.28-.47.61-1.05,1.07-1.74,1.38-.69.31-1.58.46-2.65.46-1.3,0-2.36-.19-3.19-.57s-1.54-1.04-2.13-1.99c-.6-.95-.9-2.17-.9-3.65,0-1.98.53-3.5,1.58-4.56,1.05-1.06,2.54-1.59,4.47-1.59,1.51,0,2.69.31,3.55.91s1.5,1.55,1.92,2.81l-3.27.73c-.11-.36-.23-.63-.36-.8-.21-.28-.46-.5-.76-.65-.3-.15-.63-.23-1-.23-.84,0-1.48.34-1.93,1.01-.34.5-.51,1.29-.51,2.36,0,1.33.2,2.24.6,2.73.4.49.97.74,1.7.74s1.24-.2,1.6-.6c.36-.4.62-.97.79-1.73Z" fill="#231f20"/>
    <path d="M117,25.17c0-1.95.54-3.48,1.63-4.56,1.09-1.09,2.6-1.63,4.55-1.63s3.53.53,4.6,1.6c1.08,1.07,1.62,2.57,1.62,4.49,0,1.4-.24,2.55-.71,3.44-.47.9-1.15,1.59-2.04,2.09s-2,.75-3.33.75-2.47-.21-3.35-.64c-.88-.43-1.6-1.11-2.15-2.04-.55-.93-.83-2.09-.83-3.49ZM120.7,25.19c0,1.21.22,2.08.67,2.6.45.53,1.06.79,1.83.79s1.41-.26,1.84-.78c.43-.52.65-1.44.65-2.78,0-1.13-.23-1.95-.68-2.47-.45-.52-1.07-.78-1.85-.78s-1.34.26-1.8.79c-.45.53-.68,1.4-.68,2.62Z" fill="#231f20"/>
    <path d="M131.41,19.18h3.45l4.51,6.62v-6.62h3.49v11.97h-3.49l-4.48-6.57v6.57h-3.48v-11.97Z" fill="#231f20"/>
    <path d="M145.34,19.18h3.45l4.51,6.62v-6.62h3.49v11.97h-3.49l-4.48-6.57v6.57h-3.48v-11.97Z" fill="#231f20"/>
    <path d="M159.23,19.18h9.91v2.56h-6.2v1.9h5.75v2.44h-5.75v2.36h6.38v2.71h-10.09v-11.97Z" fill="#231f20"/>
    <path d="M179.28,26.25l3.24.98c-.22.91-.56,1.67-1.03,2.28-.47.61-1.05,1.07-1.74,1.38-.69.31-1.58.46-2.65.46-1.3,0-2.36-.19-3.19-.57s-1.54-1.04-2.13-1.99c-.6-.95-.9-2.17-.9-3.65,0-1.98.53-3.5,1.58-4.56,1.05-1.06,2.54-1.59,4.47-1.59,1.51,0,2.69.31,3.55.91s1.5,1.55,1.92,2.81l-3.27.73c-.11-.36-.23-.63-.36-.8-.21-.28-.46-.5-.76-.65-.3-.15-.63-.23-1-.23-.84,0-1.48.34-1.93,1.01-.34.5-.51,1.29-.51,2.36,0,1.33.2,2.24.6,2.73.4.49.97.74,1.7.74s1.24-.2,1.6-.6c.36-.4.62-.97.79-1.73Z" fill="#231f20"/>
    <path d="M183.47,19.18h11.24v2.96h-3.77v9.01h-3.7v-9.01h-3.77v-2.96Z" fill="#231f20"/>
  </g>
</svg>